<svg width="120" height="58" viewBox="0 0 72 35" fill="none" xmlns="http://www.w3.org/2000/svg"><path d="M54.422 0c-3.948 0-8.255 2.104-12.801 6.253-2.154 1.954-4.038 4.058-5.414 5.742 0 0 2.213 2.495 4.636 5.17 1.316-1.623 3.2-3.817 5.383-5.801 4.038-3.698 6.67-4.45 8.196-4.45 5.682 0 10.288 4.66 10.288 10.432 0 5.712-4.606 10.372-10.288 10.432-.27 0-.599-.03-.987-.12 1.645.75 3.439 1.292 5.114 1.292 10.408 0 12.442-7.035 12.562-7.546.299-1.292.478-2.645.478-4.028C71.56 7.786 63.873 0 54.422 0z" fill="url(#paint0_linear)"/><path d="M58.52 28.71c-5.324-.15-10.857-4.51-11.994-5.592-2.931-2.796-5.683-5.982-5.683-5.982-2.422-2.676-4.636-5.171-4.636-5.171-.777.932-4.605 5.35-4.605 5.35s2.572 2.767 2.781 3.007c5.025 6.133 12.592 14.31 20.069 14.31 8.075-.03 14.865-5.712 16.66-13.318-.15.541-2.842 7.666-12.592 7.396z" fill="#29ABE2"/><path d="M18.084 34.662c3.948 0 8.255-2.104 12.8-6.253 2.154-1.954 4.038-4.058 5.414-5.742 0 0-2.213-2.495-4.636-5.17-1.316 1.623-3.2 3.817-5.383 5.801-4.038 3.668-6.7 4.45-8.195 4.45-5.683 0-10.289-4.66-10.289-10.432 0-5.712 4.606-10.372 10.289-10.432.269 0 .598.03.987.12-1.645-.751-3.44-1.292-5.115-1.292-10.408 0-12.442 7.034-12.561 7.546a17.886 17.886 0 00-.479 4.028c0 9.59 7.687 17.376 17.168 17.376z" fill="url(#paint1_linear)"/><path d="M13.956 5.862c5.323.15 10.886 4.57 12.023 5.652 2.931 2.796 5.683 5.982 5.683 5.982a768.576 768.576 0 014.636 5.171c.777-.932 4.605-5.351 4.605-5.351s-2.572-2.766-2.781-3.006C33.127 8.177 25.56 0 18.083 0 10.008.03 3.218 5.712 1.423 13.318c.09-.511 2.752-7.696 12.533-7.456z" fill="#29ABE2"/><defs><linearGradient id="paint0_linear" x1="45.417" y1="2.51" x2="69.175" y2="26.986" gradientUnits="userSpaceOnUse"><stop offset=".21" stop-color="#F15A24"/><stop offset=".684" stop-color="#FBB03B"/></linearGradient><linearGradient id="paint1_linear" x1="27.068" y1="32.139" x2="3.311" y2="7.663" gradientUnits="userSpaceOnUse"><stop offset=".21" stop-color="#ED1E79"/><stop offset=".893" stop-color="#522785"/></linearGradient></defs></svg>